<svg width="128" height="128" viewBox="0 0 128 128" xmlns="http://www.w3.org/2000/svg">
  <g id="mascot" stroke-linecap="round" stroke-linejoin="round">
    <path d="M 24 4 C 4 4 4 24 4 44 v 40 c 0 20 0 40 20 40 h 80 c 20 0 20 -20 20 -40 v -40 c 0 -20 0 -40 -20 -40 z" fill="#f6c649" stroke="#c08b1a" stroke-width="5"/>
    <g id="glasses" stroke="#8b6914" stroke-width="4" fill="none">
      <circle cx="46" cy="62" r="19"/>
      <circle cx="82" cy="62" r="19"/>
      <path d="M 65 62 h 17"/>
    </g>
    <g id="eyes">
      <g id="left-eye-wink">
        <circle cx="46" cy="62" r="19" fill="white"/>
        <path d="M 36 68 C 42 62, 50 62, 56 68" stroke="#3d2e1a" stroke-width="4.5" fill="none"/>
      </g>
      <g id="right-eye-open">
        <circle cx="82" cy="62" r="19" fill="white"/>
        <circle cx="82" cy="62" r="8" fill="#3d2e1a"/>
      </g>
    </g>
    <g id="book-and-hands">
       <path d="M 38 106 a 12 12 0 0 0 0 -12" fill="#f6c649" stroke="#c08b1a" stroke-width="5"/>
       <path d="M 90 106 a 12 12 0 0 1 0 -12" fill="#f6c649" stroke="#c08b1a" stroke-width="5"/>
       <rect x="42" y="90" width="44" height="28" rx="3" fill="white" stroke="#8b6914" stroke-width="4"/>
       <path d="M 50 99 h 26 M 50 107 h 26" stroke="#8b6914" stroke-width="3" fill="none"/>
    </g>
  </g>
</svg>